<svg width="62" height="56" viewBox="0 0 62 56" fill="none" xmlns="http://www.w3.org/2000/svg">
<path fill-rule="evenodd" clip-rule="evenodd" d="M50.3472 44.1904C50.3506 44.1864 50.5713 43.9712 50.8073 43.9712C51.0452 43.9712 51.3286 44.1802 51.3286 45.1761V50.9883C51.3286 53.6507 49.5657 55.8169 47.3985 55.8173H47.3976H4.10151H4.10083C1.87784 55.8167 0 53.6055 0 50.9881V4.62842C0 2.07648 1.83999 0.000200782 4.10151 0H47.3976C49.6018 0 51.3286 2.03312 51.3286 4.62842V11.0685C51.3286 11.8034 51.0962 11.9578 50.9009 11.9578C50.751 11.9578 50.6209 11.8574 50.6154 11.8531L46.9212 8.80568C46.8915 8.78079 46.2128 8.19932 46.2128 7.37913V6.02385H4.94528V49.995H46.2128V48.5896C46.2128 47.5768 46.9063 47.0271 46.9358 47.0042L50.3472 44.1904ZM51.1562 45.047C51.1574 45.0903 51.1581 45.1337 51.1581 45.1761C51.1581 45.1309 51.1572 45.0887 51.1562 45.047ZM47.3488 15.0341L61.4036 26.6281C61.7812 26.9395 62 27.4159 61.9998 27.9197C61.9996 28.4237 61.7858 28.8999 61.4084 29.2111L47.3597 40.8215C47.122 41.018 46.8706 41.1567 46.6141 41.1602C46.0541 41.1531 45.5306 40.5804 45.5306 39.6225V32.7274H27.5291C26.683 32.7274 25.92 31.8928 25.92 30.8963V24.923C25.92 23.9266 26.6828 23.0899 27.5291 23.0899H45.5306V16.1985C45.5306 15.2345 46.0603 14.7301 46.6242 14.7301C46.8841 14.7301 47.1078 14.8354 47.3488 15.0341ZM46.6141 41.1602C46.6108 41.1602 46.6075 41.1602 46.6043 41.1602H46.6246C46.6211 41.1602 46.6176 41.1602 46.6141 41.1602Z" fill="#27569C"/>
</svg>
